inDegrees=yes
name=ik_S56_A07_T01
DataType=double
version=3
OpenSimVersion=4.3-2021-08-27-4bc7ad9
endheader
time	pelvis_tilt	pelvis_list	pelvis_rotation	pelvis_tx	pelvis_ty	pelvis_tz	hip_flexion_r	hip_adduction_r	hip_rotation_r	knee_angle_r	knee_angle_r_beta	ankle_angle_r	subtalar_angle_r	mtp_angle_r	hip_flexion_l	hip_adduction_l	hip_rotation_l	knee_angle_l	knee_angle_l_beta	ankle_angle_l	subtalar_angle_l	mtp_angle_l	lumbar_extension	lumbar_bending	lumbar_rotation	arm_flex_r	arm_add_r	arm_rot_r	elbow_flex_r	pro_sup_r	wrist_flex_r	wrist_dev_r	arm_flex_l	arm_add_l	arm_rot_l	elbow_flex_l	pro_sup_l	wrist_flex_l	wrist_dev_l
0	0	0	0	0	0.9399999999999999	0	0	0	0	0	0	0	0	0	0	0	0	0	0	0	0	0	0	0	0	0	0	0	0	89.99999999963507	0	0	0	0	0	0	89.99999999869995	0	0
0.02	-9.606372916060268	-1.765387905729537	20.6908019381076	0	0.9399999999999999	0	4.809463002414669	-2.204833462128757	-1.612121055349398	7.240033512862929	0.1263624227541894	0	0	0	4.809463002414669	-2.204833462128757	-1.612121055349398	7.240033512862929	0.1263624227541894	0	0	0	-8.648663973592068	-1.000423501628195	-0.2216630508394274	34.0503212671397	-10.55608339141811	9.572580615769867	43.04999037067158	131.5695256269031	0	0	33.01969123215325	-4.567655962777594	7.986411387746141	47.00584163439844	142.0755057216457	0	0
0.04	-9.604573744766745	-1.762829891669004	20.6980573203497	0	0.9399999999999999	0	5.145571654622793	-2.385765170971775	-1.728893021459637	7.676388304545164	0.1339782505758983	0	0	0	5.145571654622793	-2.385765170971775	-1.728893021459637	7.676388304545164	0.1339782505758983	0	0	0	-8.649752403419916	-0.988105092045224	-0.2231466522532168	34.10041840203838	-10.56725566912639	9.580196199138738	42.99044206993927	131.5719052535689	0	0	33.02377649820692	-4.54657254668354	7.971017163101052	47.00981055101342	142.0239532375676	0	0
0.06	-9.594574823577631	-1.76247996330517	20.70353717164105	0	0.9399999999999999	0	5.328604765235198	-2.480026099184062	-1.793810089229685	7.888375148933522	0.137678118981388	0	0	0	5.328604765235198	-2.480026099184062	-1.793810089229685	7.888375148933522	0.137678118981388	0	0	0	-8.642739218142959	-0.9837388939997588	-0.2276347412986888	34.10188981910338	-10.57833157079958	9.610131447209929	43.02527951794146	131.5161647124832	0	0	33.02012067010072	-4.560558797555532	7.989867144224719	47.03487096260208	141.9399651861947	0	0
0.08	-9.592789162386833	-1.763498443328031	20.69883954376807	0	0.9399999999999999	0	5.45733005434789	-2.560025876671183	-1.839819183411969	8.07686899613358	0.1409679572347801	0	0	0	5.45733005434789	-2.560025876671183	-1.839819183411969	8.07686899613358	0.1409679572347801	0	0	0	-8.642004068876268	-0.9842093623765654	-0.2240740672315168	34.13367826254391	-10.57900742015435	9.621043506915017	42.96585754537879	131.5735835109405	0	0	33.05854721794228	-4.558305821173815	7.989067804134928	46.97863260498672	141.9711838182926	0	0
0.1	-9.078432995777751	-3.00408873931502	19.87820867531146	0	0.9399999999999999	0	45.97308684821714	-9.882592396853726	-10.08478779775188	54.40020140102399	0.9494626281959008	0	0	0	45.97308684821714	-9.882592396853726	-10.08478779775188	54.40020140102399	0.9494626281959008	0	0	0	-8.688135802049453	0.2158564093274172	0.8116292828665247	34.14631225578388	-10.57846379989862	9.623997307535014	42.96681758899643	131.5605191712165	0	0	33.07401953449589	-4.549265737900773	7.991662904660084	46.97224822362829	141.9682006721824	0	0
0.12	-9.069395839132692	-3.00123887997067	19.88597836706806	0	0.9399999999999999	0	45.97218466577144	-9.88303678128602	-10.08459551322316	54.40056308788442	0.9494689408224765	0	0	0	45.97218466577144	-9.88303678128602	-10.08459551322316	54.40056308788442	0.9494689408224765	0	0	0	-8.679074291182431	0.2150007078711974	0.8139598794690607	34.15527348914562	-10.59036669698832	9.642017613084976	42.99051137923379	131.5278711948212	0	0	33.0767942682029	-4.557562254447715	8.012068333742222	46.99104449793491	141.9188948768199	0	0
0.14	-9.06365089926372	-2.994000139733197	19.87989961974314	0	0.9399999999999999	0	45.97219576259506	-9.883154016233947	-10.0845659430587	54.40053762253468	0.9494684963682783	0	0	0	45.97219576259506	-9.883154016233947	-10.0845659430587	54.40053762253468	0.9494684963682783	0	0	0	-8.671389649566336	0.220514065071269	0.8104345561188042	34.15031616878777	-10.60563268719168	9.65881362809421	42.97960627265111	131.5255529612294	0	0	33.09055515207108	-4.555888656660853	8.009028287057999	46.98556606830209	141.9230583783669	0	0
0.16	-9.065297121342542	-2.991681464362511	19.88961381743528	0	0.9399999999999999	0	45.97179284221396	-9.883211289477737	-10.08451773307116	54.40072495801844	0.9494717659892759	0	0	0	45.97179284221396	-9.883211289477737	-10.08451773307116	54.40072495801844	0.9494717659892759	0	0	0	-8.672575042367061	0.2238826941226976	0.806904960655776	34.16917680332558	-10.61988671035082	9.702966126761746	42.94335420426704	131.5160474243234	0	0	33.10233520063816	-4.531903874506797	7.999563357879838	46.96034594120372	141.9672063916065	0	0
0.18	-9.063129689624256	-2.991064165919155	19.88643400544736	0	0.9399999999999999	0	45.97101977175156	-9.883496951675241	-10.08437854879613	54.40105276717697	0.9494774873384103	0	0	0	45.97101977175156	-9.883496951675241	-10.08437854879613	54.40105276717697	0.9494774873384103	0	0	0	-8.670783213229704	0.2235810928094433	0.8073333569153203	34.17602055137356	-10.62691104142187	9.721289858464148	42.9411365584448	131.4909581121536	0	0	33.09937624869052	-4.526618452484164	8.001501824123498	46.95934685476335	141.9663308620159	0	0
0.2	-9.055574296505748	-2.989652591108333	19.88005656895616	0	0.9399999999999999	0	45.96937158292727	-9.88418867497411	-10.08405811485267	54.40173424926316	0.9494893814446078	0	0	0	45.96937158292727	-9.88418867497411	-10.08405811485267	54.40173424926316	0.9494893814446078	0	0	0	-8.66403653109319	0.2217130475620304	0.8101786697064951	34.1753141748781	-10.64469146383314	9.760081958546616	42.98366613990306	131.4354687805786	0	0	33.10831325390544	-4.552941466883378	8.052027307223643	46.99828258992692	141.8891767109257	0	0
0.22	-9.044065923943332	-2.994757341402769	19.89857403671757	0	0.9399999999999999	0	45.96889428362343	-9.884329121975997	-10.08398242510581	54.40194361844777	0.9494930356262314	0	0	0	45.96889428362343	-9.884329121975997	-10.08398242510581	54.40194361844777	0.9494930356262314	0	0	0	-8.655169117193822	0.2128480534305131	0.8101076199833732	34.20003210647607	-10.6275569506275	9.794772649876593	42.92457096180939	131.4260915241349	0	0	33.09002278340221	-4.546170834666398	8.066163957881859	46.98769387967241	141.9243479503083	0	0
0.24	-9.036019896433604	-2.99488690072359	19.90929160184191	0	0.9399999999999999	0	45.96833053943512	-9.884527982399669	-10.08388419062322	54.4021859236377	0.9494972646495903	0	0	0	45.96833053943512	-9.884527982399669	-10.08388419062322	54.4021859236377	0.9494972646495903	0	0	0	-8.64798957631977	0.2099888912020983	0.809517019469229	34.21311420206014	-10.63635262562643	9.835141002560126	42.88075998309017	131.3977358655747	0	0	33.10227341918993	-4.532671963078122	8.105717593285876	46.97768686045754	141.9298760080108	0	0
0.26	-9.028046883885397	-2.99637489599803	19.92008563677493	0	0.9399999999999999	0	45.96841684567307	-9.884573446231059	-10.08388095346327	54.40213811875729	0.9494964302970286	0	0	0	45.96841684567307	-9.884573446231059	-10.08388095346327	54.40213811875729	0.9494964302970286	0	0	0	-8.640918764486848	0.2059038666492758	0.8089042332201274	34.20622869721284	-10.62868599422275	9.822995483092891	42.85232389543996	131.4068531545122	0	0	33.13140442864573	-4.520190408991086	8.075861380920905	46.95304359721948	141.9664909622219	0	0
0.28	-9.025026777645987	-2.998103704554513	19.92983805950249	0	0.9399999999999999	0	45.96671840231225	-9.885211247278004	-10.08357073647739	54.40285234995822	0.9495088959831054	0	0	0	45.96671840231225	-9.885211247278004	-10.08357073647739	54.40285234995822	0.9495088959831054	0	0	0	-8.639912988508964	0.2039102653272378	0.8044898095404375	34.21630556780647	-10.64906906385014	9.882626295619231	42.87522610122139	131.3534038827216	0	0	33.15526593716735	-4.531984801910875	8.062933722822766	46.97104504871613	141.9382502964188	0	0
